<svg id="svg2" xmlns:rdf="http://www.w3.org/1999/02/22-rdf-syntax-ns#" xmlns="http://www.w3.org/2000/svg"  version="1.1" xmlns:cc="http://creativecommons.org/ns#" xmlns:dc="http://purl.org/dc/elements/1.1/" viewBox="0 0 800.00001 400.00001">
 <g id="layer1" transform="translate(0 -652.36)">
  <g id="g4412" style="image-rendering:optimizeSpeed" transform="matrix(.72697 0 0 .72697 117.22 233.64)" fill="#f55">
   <path id="basefl" opacity=".7" style="color-rendering:auto;text-decoration-color:#000000;color:#000000;isolation:auto;mix-blend-mode:normal;shape-rendering:auto;solid-color:#000000;block-progression:tb;text-decoration-line:none;text-decoration-style:solid;image-rendering:auto;white-space:normal;text-indent:0;text-transform:none" d="m388.9-13.061v0.0098a25.002 25.002 0 0 0 -0.0762 0.0039l0.002-0.002c-0.47446 0.002-0.91796 0.01094-1.3281 0.02344a25.002 25.002 0 0 0 -0.002 0c-0.26792 0.008-0.82946 0.07629-0.88281 0.05859a25.002 25.002 0 0 0 -0.32422 0.01367c-0.2032 0.011-0.33501 0.01005 0.0117 0.002 0.004-0.0001 0.0473 0.002 0.0508 0.002-0.063-0.0334-0.90964 0.045-1.5508 0.10156-27.93 1.305-52.53 15.541-68.17 36.847-26.28-4.041-53.94 3.386-74.67 22.48-0.0571 0.0457-0.0724 0.0592-0.125 0.10156l0.5332-0.47461c0.0209-0.0177-0.38774 0.33908-0.66406 0.57812-0.0695 0.0566-0.16387 0.12993-0.19922 0.16016-0.81831 0.69969-0.0163 0.02639-0.30273 0.27734-0.0147 0.0132-0.0168 0.01424-0.0312 0.02734-0.0672 0.0604-0.1325 0.12275-0.19922 0.18359-0.0589 0.0709-0.70256 0.64115-0.75196 0.68945-0.0844 0.0825-0.15026 0.14731-0.22851 0.22461-0.15651 0.15459-0.35004 0.34713-0.59766 0.59375a25.002 25.002 0 0 0 -0.14062 0.14844 25.002 25.002 0 0 0 -0.0488 0.04883l-0.0195 0.02148c-0.0548 0.0546 0.0463-0.0485-0.0352 0.0332a25.002 25.002 0 0 0 -0.004 0.0059c0.13268-0.13322 0.0266-0.0322-0.30859 0.31055l0.19727-0.20117c0.0354-0.0354-0.0796 0.0791-0.18164 0.18164-0.0211 0.0212-0.0415 0.04315-0.0625 0.06445-0.006 0.007-0.00082 0.000813-0.008 0.0078-0.11581 0.11727-0.22949 0.23668-0.34375 0.35547 0.0274-0.028 0.20539-0.20415 0.33203-0.33008a25.002 25.002 0 0 0 -0.01 0.01367 25.002 25.002 0 0 0 -0.0684 0.06836c0.0556-0.0466-0.29794 0.29566-0.30859 0.30664-0.0137 0.0141-0.0301 0.02811 0.0547-0.05859-0.0568 0.0591-0.11545 0.11635-0.17187 0.17578a25.002 25.002 0 0 0 -0.0684 0.07227c-0.0413 0.0439-0.25659 0.27952-0.27344 0.29492a25.002 25.002 0 0 0 -0.0488 0.05078c-0.0714 0.0777 0.0116-0.01166-0.0508 0.05664-0.0921 0.10154 0.13396-0.15202-0.11328 0.12305-0.0661 0.0736-0.14621 0.16255-0.33789 0.38476-0.001 0.002-0.0121 0.01578-0.0137 0.01758 0.0388-0.0423-0.17819 0.2015-0.10352 0.11719h0.002a25.002 25.002 0 0 0 -0.31446 0.35156l-0.27148 0.31836a25.002 25.002 0 0 0 -0.0273 0.03516 25.002 25.002 0 0 0 -0.0234 0.02734c0.23471-0.2796 0.10828-0.16141-0.60547 0.70898a25.002 25.002 0 0 0 -0.10547 0.14453c-18.438 20.609-25.615 47.785-21.65 73.652-21.257 15.592-35.484 40.114-36.854 67.982-0.10424 1.0958-0.12931 1.6505-0.16015 2.4648-0.0231 0.59289-0.0382 1.2216-0.0391 1.8828a25.002 25.002 0 0 0 0 0.0312v0.0176 0.01 0.0195a25.002 25.002 0 0 0 0 0.041c0.00091 0.53344 0.0107 0.99317 0.0215 1.377a25.002 25.002 0 0 0 0.002 0.0469c-0.0449-1.4965-0.0522-1.5972 0.002 0.0723 0.009 0.28276 0.0744 0.84501 0.0605 0.92383a25.002 25.002 0 0 0 0.01 0.22461c0.002 0.0305 0.00081 0.0345 0.002 0.0605-0.0166 0.193 0.007 0.66547 0.1211 1.7539 0.0104 0.20648 0.0195 0.41302 0.0312 0.61914 0.0135 0.26398-0.18044 0.37446 0.082 1.6035 2.0216 26.884 16.06 50.458 36.717 65.619-4.0376 26.263 3.3785 53.899 22.443 74.629 0.0585 0.0732 0.0747 0.0908 0.12891 0.1582l-0.44141-0.49414c-0.0653-0.077 0.32286 0.36746 0.56836 0.65234 0.0504 0.0618 0.11872 0.15112 0.14649 0.1836 0.61932 0.72429-0.0135-0.0304 0.24609 0.26757 0.0311 0.0348 0.0279 0.0342 0.0586 0.0684 0.06 0.0668 0.12307 0.1309 0.1836 0.19727 0.0709 0.0589 0.64117 0.70257 0.68945 0.75195 0.0825 0.0844 0.14732 0.15032 0.22461 0.22852 0.15457 0.1565 0.34717 0.3481 0.59375 0.5957a25.002 25.002 0 0 0 0.13281 0.12695h0.002a25.002 25.002 0 0 0 0.0176 0.0195h0.004c-0.0922-0.092-0.11774-0.11606 0.11719 0.11914 0.0396 0.04 0.0269 0.029 0.10742 0.10937h0.004c0.006 0.01 0.002-0.00023 0.008 0.01 0.27125 0.2718 0.5467 0.53933 0.82617 0.80273a25.002 25.002 0 0 0 0.0156 0.0156c0.0398 0.037 0.0549 0.052 0.15821 0.14843 0.0453 0.042 0.13138 0.12064 0.33398 0.30274a25.002 25.002 0 0 0 0.006 0c0.0261 0.023 0.009 0.0111 0.041 0.0391 0.007 0.01 0.036 0.0311 0.043 0.0371 0.007 0.007 0.0214 0.0198 0.0176 0.0156 0.0569 0.0508 0.11163 0.10016 0.13282 0.11914-0.002 0-0.0666-0.0646-0.0606-0.0586 0.008 0.01 0.0368 0.0301 0.0449 0.0371 0.006 0.01 0.0268 0.0243 0.0332 0.0293 0.23149 0.2076 0.11582 0.10369 0.13282 0.11718a25.002 25.002 0 0 0 0.0742 0.0684h0.002c-0.0448-0.04 0.13685 0.12153 0.0547 0.0488a25.002 25.002 0 0 0 0.0293 0.0254h-0.004c0.034 0.029-0.0959-0.0844-0.0254-0.0234 0.15005 0.1296-0.10016-0.0859-0.0566-0.0469a25.002 25.002 0 0 0 0.084 0.082c0.0394 0.034 0.0688 0.0589 0.18359 0.1582 0.0193 0.017 0.11481 0.0961 0.13868 0.11719a25.002 25.002 0 0 0 0.0176 0.0176l0.30469 0.25977c-0.008-0.01 0.0264 0.0206 0.0195 0.0156a25.002 25.002 0 0 0 0.0117 0.01c-0.0113-0.01 0.0422 0.0373 0.0332 0.0293-0.18972-0.1563-0.13341-0.087 0.70704 0.60352a25.002 25.002 0 0 0 0.10351 0.0762c20.621 18.48 47.826 25.672 73.719 21.703 15.854 21.608 40.932 35.982 69.367 36.938 0.44464 0.029 0.75156 0.0602 1.2227 0.0762 0.56784 0.021 1.1134 0.0292 1.6387 0.0312 0.10286 0.0007 0.20573 0.0002 0.30859 0 0.56375 0 0.70535-0.0115 0.96875-0.0215 0.92434-0.01 1.6202-0.0198 2.6875-0.0898 0.28564-0.019 0.58813-0.0366 1.1738-0.0996 0.36811-0.039 0.63171 0.091 1.8926-0.16992 26.847-2.0616 50.377-16.045 65.506-36.666 26.047 4.0003 53.435-3.2782 74.104-22.004 0.72254-0.5952 1.1744-1.0025 1.6973-1.4902a25.002 25.002 0 0 0 0.27734 -0.24218c0.5378-0.50041 0.9655-0.92246 1.2949-1.252a25.002 25.002 0 0 0 0.0176 -0.0195h0.002c0.16432-0.1646 0.32318-0.33435 0.48438-0.50195a25.002 25.002 0 0 0 0.0449 -0.0469c0.10546-0.11 0.21424-0.21685 0.31836-0.32812l-0.16601 0.17578a25.002 25.002 0 0 0 0.0918 -0.0918c0.31957-0.33441 0.54956-0.57876 0.76172-0.80469 0.10608-0.11297 0.19273-0.20221 0.37891-0.40625 0.0931-0.10203 0.16923-0.18035 0.51953-0.58789 0.1082-0.12588 0.47065-0.59537 0.73047-0.91992 18.557-20.633 25.77-47.895 21.791-73.836 21.108-15.483 35.274-39.772 36.812-67.4l0.0117-0.17773c0.1536-1.4449 0.1549-1.874 0.19336-2.8438a25.002 25.002 0 0 0 0 -0.0176c0.004-0.11 0.004-0.22868 0.008-0.33984a25.002 25.002 0 0 0 0.0117 -0.63282v-0.01c0.006-0.30026 0.019-0.59207 0.0195-0.90039a25.002 25.002 0 0 0 0 -0.0391v-0.0195-0.01-0.0195a25.002 25.002 0 0 0 0 -0.0391c-0.00085-0.53624-0.0107-0.99654-0.0215-1.3789a25.002 25.002 0 0 0 -0.002 -0.0606c-0.0106-0.34744-0.10079-1.0978-0.0762-1.1445 0.00056 0.009-0.003 0.12574-0.002 0.13086-0.002-0.0649-0.01-0.12843-0.0117-0.19336h0.01c0.0332-0.0614-0.0378-0.8585-0.10156-1.5488-1.3246-27.91-15.551-52.489-36.84-68.113 3.9948-25.979-3.2318-53.291-21.848-73.945l-0.0117 0.0098c-0.35082-0.43536-0.51591-0.60587-0.66016-0.75977l0.0137-0.0098c-0.12026-0.13047-0.22453-0.27048-0.3457-0.40039a25.002 25.002 0 0 0 -0.16016 -0.1543c-0.10978-0.0985-0.4877-0.58116-0.71289-0.82226l-0.0137-0.01367c-0.33433-0.35934-0.67526-0.71265-1.0234-1.0586a25.002 25.002 0 0 0 -0.0176 -0.01758c-0.44817-0.44439-0.38398-0.37461-0.21874-0.21094a25.002 25.002 0 0 0 -0.043 -0.04297l-0.20118-0.19727a25.002 25.002 0 0 0 -0.0898 -0.08789c-0.36682-0.35614-0.23737-0.22737-0.15234-0.14453 0.0341 0.0332-0.1696-0.16239-0.0606-0.05859-0.005-0.004-0.005-0.007-0.01-0.01172l-0.0352-0.0332c0.25904 0.24815 0.15052 0.14217-0.125-0.12305l-0.043-0.04102-0.008-0.0078a25.002 25.002 0 0 0 -0.0156 -0.01367l-0.0156-0.01758c-0.0116-0.0113-0.0236-0.022-0.0352-0.0332-0.0328-0.0315-0.0809-0.07801-0.10351-0.09961 0.0136 0.0133 0.0514 0.05358 0.082 0.08398-0.11587-0.1117-0.29434-0.28546-0.31055-0.30078-0.0124-0.0118-0.0191-0.02031-0.006-0.0078a25.002 25.002 0 0 0 -0.0801 -0.07617c-0.00081-0.00075-0.0276-0.02379-0.0293-0.02539a25.002 25.002 0 0 0 -0.0469 -0.04492c-0.0314-0.0292-0.001 0.000336-0.0312-0.02734l0.0586 0.05664c-0.0233-0.0205-0.19825-0.17095-0.29492-0.25391a25.002 25.002 0 0 0 -0.36133 -0.32812c0.0617 0.0567 0.3322 0.28378 0.32422 0.28125-0.30576-0.27222-0.76876-0.68701-0.5625-0.50391v0.01172a25.002 25.002 0 0 0 -0.17578 -0.15625 25.002 25.002 0 0 0 -0.0781 -0.07422l-0.0312-0.0293-0.0469-0.04102-0.0371-0.0332-0.26562-0.23438-0.002 0.002c-0.11-0.10095-0.0384-0.0489-0.55468-0.48047a25.002 25.002 0 0 0 -0.006 -0.0039 25.002 25.002 0 0 0 -0.0274 -0.02539c0.56345 0.4697 0.54231 0.44902-0.0703-0.05859l0.082 0.07227a25.002 25.002 0 0 0 -0.13281 -0.09961c-20.59-18.573-47.84-25.787-73.77-21.812-15.676-21.365-40.372-35.634-68.418-36.875-0.67786-0.0547-1.3018-0.10635-2.0527-0.13477h-0.0137a25.002 25.002 0 0 0 -0.2539 -0.0098c-0.58115-0.0179-1.1542-0.02544-1.7207-0.02344h-0.0195zm0.0195 25.01h0.0742c0.293-0.0011 0.58605 0.0027 0.87891 0.01172a12.501 12.501 0 0 1 0.0781 0.0039c0.70045 0.02647 1.0577 0.05403 1.2168 0.07031 26.334 0.88437 48.842 17.665 58.17 41.023 23.044-9.8878 50.719-5.8753 69.959 11.994 0.005 0.0038 0.009 0.0079 0.0137 0.01172l0.006 0.0059c0.16564 0.13848 0.32379 0.28563 0.48633 0.42774l0.14453 0.12109-0.002 0.002c0.14524 0.12893 0.29528 0.25248 0.4375 0.38476a12.501 12.501 0 0 1 0.0195 0.01953c0.124 0.1145-0.13115-0.1243 0.0293 0.02539a12.501 12.501 0 0 1 0.11329 0.10938c0.0326 0.0311 0.0652 0.06235 0.0977 0.09375l0.0469 0.04492 0.0351 0.0332c0.0319 0.0304 0.062 0.06305 0.0937 0.09375 0.0471 0.04532 0.0939 0.09102 0.14063 0.13672 0.0103 0.0098 0.021 0.0193 0.0312 0.0293l0.20117 0.19726 0.0176 0.01758c0.0477 0.04668 0.0971 0.09167 0.14453 0.13867a12.501 12.501 0 0 1 0.3457 0.35742c0.52831 0.56754 0.81554 0.89733 0.89258 0.99609-0.002-0.0022 0.0137 0.01626 0.0117 0.01367 17.949 19.243 21.978 46.99 12.068 70.078 23.599 9.4253 40.491 32.302 41.051 58.984-0.0775-1.4347-0.006-1.1077 0.0469 0.62305 0.007 0.23821 0.0113 0.47652 0.0117 0.71484a12.501 12.501 0 0 1 0 0.0195v0.01a12.501 12.501 0 0 1 0 0.0195c-0.0005 0.31323-0.007 0.62646-0.0195 0.93945v0.01c-0.0289 0.72812-0.0575 1.1163-0.0742 1.2676-0.9122 26.303-17.683 48.778-41.02 58.098 9.9783 23.256 5.8193 51.238-12.473 70.498-0.12805 0.14475-0.2534 0.29184-0.38477 0.43359l0.006 0.004c-0.0396 0.0449-0.0812 0.0881-0.12109 0.13281 0.1855-0.19933-0.16018 0.17322-0.0352 0.041 0.6791-0.71812 0.96285-0.98941-0.19336 0.2207a12.501 12.501 0 0 1 -0.0488 0.0469 12.501 12.501 0 0 1 -0.0566 0.0586 12.501 12.501 0 0 1 -0.2832 0.29297l-0.006 0.008c-0.21228 0.21227-0.4267 0.42246-0.64648 0.62695l-0.008 0.006c-0.52128 0.48442-0.81018 0.73308-0.92773 0.82813-19.246 18.009-47.036 22.062-70.154 12.139-9.3165 23.326-31.776 40.095-58.062 41.02 0.38383 0.006-0.16216 0.0665-1.5547 0.0781-0.19006 0.007-0.38015 0.0156-0.57031 0.0156a12.501 12.501 0 0 1 -0.1543 0h-0.01a12.501 12.501 0 0 1 -0.0176 0c-0.29369-0.001-0.58737-0.007-0.88086-0.0176-0.59426-0.0199-0.88361-0.0442-1.0976-0.0645-26.406-0.81803-48.99-17.622-58.338-41.029-23.061 9.895-50.757 5.865-69.998-12.037-0.13947-0.11451-0.27127-0.23797-0.40821-0.35547a12.501 12.501 0 0 1 -0.008 -0.006l-0.30469-0.25976 0.002-0.002c-0.009-0.007 0.038 0.038-0.11719-0.0977l0.002 0.004c0.15036 0.13131-0.0726-0.0669-0.25195-0.22852-0.0751-0.0677 0.0242 0.0263-0.10547-0.0957a12.501 12.501 0 0 1 -0.2793 -0.27149c-0.0413-0.0414-0.082-0.0833-0.12304-0.125-0.0426-0.0427-0.0844-0.0862-0.12696-0.1289-0.007-0.007-0.0145-0.0154-0.0215-0.0234a12.501 12.501 0 0 1 -0.0996 -0.0898c-0.91596-0.91971-0.94164-0.9565-0.0859-0.0937l0.16407 0.1621c-0.0862-0.0837-0.16901-0.17085-0.25391-0.25585-0.12141-0.12143-0.2444-0.24133-0.36328-0.36524a12.501 12.501 0 0 1 -0.27539 -0.29687c-0.32641-0.36299-0.40067-0.45888-0.54492-0.62891-17.999-19.246-22.052-47.025-12.135-70.137-23.75-9.4853-40.714-32.594-41.066-59.496l0.0156 0.50976c0.076 1.4084 0.006 1.0296-0.0469-0.61132-0.00012-0.004 0.00012-0.008 0-0.0117-0.007-0.23821-0.0113-0.47653-0.0117-0.71485a12.501 12.501 0 0 1 0 -0.0195v-0.01a12.501 12.501 0 0 1 0 -0.0176c0.0004-0.31324 0.007-0.62646 0.0195-0.93946 0.0269-0.7036 0.0524-1.0712 0.0684-1.2207 0.88911-26.329 17.671-48.83 41.025-58.156-9.94-23.165-5.8345-51.009 12.273-70.26a12.501 12.501 0 0 1 0.0449 -0.05859l-0.29102 0.32812c0.10771-0.13135 0.22363-0.25566 0.33398-0.38477a12.501 12.501 0 0 1 0.0137 -0.01758l0.27148-0.31836 0.004 0.0039c0.10343-0.11678 0.20103-0.23868 0.30664-0.35352a12.501 12.501 0 0 1 0.0605 -0.05859c0.149-0.1621-0.18639 0.19176 0.0586-0.06836a12.501 12.501 0 0 1 0.19531 -0.20117c0.0394-0.04004 0.0794-0.07944 0.11914-0.11914 0.0483-0.04939 0.0978-0.09758 0.14649-0.14648 0.0289-0.029 0.0588-0.05704 0.0879-0.08594a12.501 12.501 0 0 1 0.0898 -0.09961c0.91982-0.91608 0.95662-0.94177 0.0937-0.08594l-0.16211 0.16406c0.0837-0.08617 0.17086-0.16901 0.25586-0.25391 0.12143-0.12141 0.24133-0.24439 0.36523-0.36328a12.501 12.501 0 0 1 0.29688 -0.27539c0.37394-0.33621 0.47754-0.41931 0.64648-0.5625 19.245-17.985 47.014-22.032 70.119-12.117 9.4854-23.75 32.594-40.714 59.496-41.066l-0.50977 0.01563c-1.4351 0.0775-1.1082 0.006 0.62305-0.04687 0.21999-0.0067 0.44007-0.01089 0.66016-0.01172v-0.002zm-130.99 319.8 0.002-0.002c-0.049-0.0435-0.0997-0.085-0.14844-0.1289 0.0124 0.0107 0.0854 0.0764 0.14649 0.13086zm0.71875 0.62304c-0.10147-0.0944-0.20565-0.18412-0.30664-0.27929a12.501 12.501 0 0 1 -0.0508 -0.0371l0.35742 0.3164zm260.66-267.3c0.11032 0.10255 0.22422 0.19928 0.33398 0.30274a12.501 12.501 0 0 1 0.0469 0.03516l-0.38086-0.33789zm22.002-13.332c0.2079 0.23484 0.28987 0.33302 0.32227 0.37109-0.0131-0.0154-0.001-0.003-0.0234-0.0293-0.0341-0.04-0.13952-0.16135-0.29883-0.3418z" transform="translate(0 652.36)"/>
   <path id="fl" opacity=".7" style="color-rendering:auto;text-decoration-color:#000000;color:#000000;isolation:auto;mix-blend-mode:normal;shape-rendering:auto;solid-color:#000000;block-progression:tb;text-decoration-line:none;text-decoration-style:solid;image-rendering:auto;white-space:normal;text-indent:0;text-transform:none" d="m388.99 24.451a12.501 12.501 0 0 0 -0.36328 0.0059c-0.10753 0.003-0.21293 0.02936-0.32031 0.03516-27.042 0.35465-49.34 21.471-51.592 48.043-20.303-17.132-50.835-16.36-70.221 2.2988-0.0825 0.0706-0.17508 0.12854-0.25586 0.20117a12.501 12.501 0 0 0 -0.31055 0.30859c-0.0245 0.0243-0.0517 0.04396-0.0762 0.06836l0.043-0.03516a12.501 12.501 0 0 0 -0.25586 0.25391l-0.0137 0.01367a12.501 12.501 0 0 0 -0.13281 0.13281c-0.0502 0.0533-0.0894 0.11581-0.13867 0.16992-0.0527 0.0539-0.098 0.11196-0.1504 0.16602l0.27149-0.31836a12.501 12.501 0 0 0 -0.46484 0.53516c-18.581 19.389-19.328 49.859-2.2227 70.133-26.52 2.2471-47.601 24.461-48.037 51.432-0.008 0.11961-0.0325 0.2376-0.0371 0.35742a12.501 12.501 0 0 0 -0.01 0.47657v0.01a12.501 12.501 0 0 0 0.006 0.36328c0.003 0.10753 0.0294 0.21292 0.0352 0.32032 0.35417 27.043 21.47 49.34 48.043 51.592-17.132 20.303-16.36 50.835 2.2988 70.221 0.0706 0.0825 0.12854 0.17508 0.20117 0.25585a12.501 12.501 0 0 0 0.30859 0.31055c0.0243 0.0245 0.044 0.0517 0.0684 0.0762l-0.0351-0.043a12.501 12.501 0 0 0 0.2539 0.25586l0.0137 0.0137a12.501 12.501 0 0 0 0.125 0.12695c0.005 0.005 0.0104 0.009 0.0156 0.0137 0.0478 0.0417 0.10153 0.0763 0.14844 0.11914 0.0506 0.0494 0.10554 0.0914 0.15625 0.14063l-0.30469-0.25977a12.501 12.501 0 0 0 0.54297 0.47266c19.389 18.583 49.86 19.331 70.135 2.2246 2.2471 26.52 24.461 47.601 51.432 48.037 0.11961 0.01 0.2376 0.0331 0.35743 0.0371a12.501 12.501 0 0 0 0.47656 0.01h0.01a12.501 12.501 0 0 0 0.36329 -0.01c0.10754 0 0.21292-0.0292 0.32031-0.0351 27.043-0.3542 49.34-21.471 51.592-48.045 20.349 17.171 50.976 16.366 70.355-2.416 0.0908-0.08 0.19271-0.14606 0.28125-0.22851a12.501 12.501 0 0 0 0.32813 -0.31641l0.006-0.006a12.501 12.501 0 0 0 0.19922 -0.2207l-0.01 0.0254c0.0429-0.0449 0.0749-0.0991 0.11719-0.14453a12.501 12.501 0 0 0 0.58398 -0.66016c18.422-19.397 19.122-49.744 2.0664-69.959 26.52-2.247 47.598-24.46 48.035-51.43 0.008-0.12096 0.0344-0.24015 0.0391-0.36133a12.501 12.501 0 0 0 0.01 -0.47461v-0.01a12.501 12.501 0 0 0 -0.006 -0.36329c-0.003-0.10753-0.0294-0.21293-0.0352-0.32031-0.35465-27.043-21.472-49.34-48.045-51.592 17.17-20.349 16.366-50.976-2.416-70.355-0.0799-0.0907-0.14609-0.19271-0.22851-0.28125a12.501 12.501 0 0 0 -0.19727 -0.19141 12.501 12.501 0 0 0 -0.0117 -0.01172 12.501 12.501 0 0 0 -0.25977 -0.25391 12.501 12.501 0 0 0 -0.041 -0.03906 12.501 12.501 0 0 0 -0.13672 -0.13281c-0.0373-0.0348-0.0814-0.0614-0.11914-0.0957-0.0512-0.0501-0.10682-0.0928-0.1582-0.14258l0.24218 0.20508a12.501 12.501 0 0 0 -0.54296 -0.47656c-19.4-18.528-49.82-19.253-70.06-2.17-2.25-26.521-24.47-47.601-51.44-48.037-0.11909-0.008-0.23616-0.03261-0.35547-0.03711a12.501 12.501 0 0 0 -0.47 -0.006h-0.01zm0 12.5h0.01a0.68006 0.68006 0 0 1 0.0918 0.0098c22.035 0.05612 39.898 17.94 39.898 39.988a0.68006 0.68006 0 0 1 0 0.02734c-0.009 0.21275-0.019 0.42609-0.0312 0.63867v-0.04297c0.073 11.915-6.4216 31.965-14.586 54.127-7.558 20.516-16.536 42.742-23.164 61.707 8.8674-18.135 18.513-40.44 27.795-60.42 10.022-21.573 19.531-40.33 27.393-48.191 0.13676-0.14864 0.27455-0.29873 0.41602-0.44727a0.68006 0.68006 0 0 1 0.0117 -0.01172c15.59-15.588 40.861-15.603 56.482-0.06641a0.68006 0.68006 0 0 1 0.084 0.06836l0.008 0.0059a0.68006 0.68006 0 0 1 0.0586 0.07227c15.541 15.621 15.525 40.897-0.0644 56.488a0.68006 0.68006 0 0 1 -0.0195 0.0195c-0.15666 0.14422-0.31365 0.28807-0.47266 0.42969-8.3876 8.4701-27.139 18.043-48.559 27.93-19.852 9.1629-41.916 18.53-60.014 27.254 19.094-6.553 41.687-15.505 62.379-23.07 22.341-8.1683 42.328-14.707 53.445-14.707 0.20181-0.008 0.40627-0.0165 0.61133-0.0215a0.68006 0.68006 0 0 1 0.0156 0c22.046 0.00092 39.927 17.861 39.986 39.893a0.68006 0.68006 0 0 1 0.0117 0.10742v0.01a0.68006 0.68006 0 0 1 -0.01 0.0918c-0.0561 22.035-17.94 39.898-39.988 39.898a0.68006 0.68006 0 0 1 -0.0273 0c-0.21275-0.009-0.42609-0.0189-0.63867-0.0312h0.043c-11.915 0.073-31.965-6.4216-54.127-14.586-20.521-7.5599-42.752-16.541-61.721-23.17 18.137 8.8693 40.448 18.517 60.434 27.801 21.573 10.022 40.33 19.531 48.191 27.393 0.14864 0.13676 0.29874 0.27456 0.44727 0.41602a0.68006 0.68006 0 0 1 0.0117 0.0117c15.588 15.59 15.603 40.861 0.0664 56.482a0.68006 0.68006 0 0 1 -0.0684 0.084v0.002l-0.006 0.006a0.68006 0.68006 0 0 1 -0.0723 0.0586c-15.621 15.541-40.897 15.525-56.488-0.0645a0.68006 0.68006 0 0 1 -0.0195 -0.0195c-0.14421-0.15666-0.28807-0.31363-0.42969-0.47265l0.0312 0.0293c-8.477-8.3739-18.063-27.142-27.961-48.586-9.1634-19.853-18.53-41.921-27.254-60.02 6.5531 19.095 15.504 41.69 23.07 62.383 8.1683 22.341 14.707 42.328 14.707 53.445 0.008 0.2018 0.0165 0.40628 0.0215 0.61133a0.68006 0.68006 0 0 1 0 0.0156c-0.00093 22.046-17.86 39.927-39.893 39.986a0.68006 0.68006 0 0 1 -0.10743 0.0117h-0.01a0.68006 0.68006 0 0 1 -0.0918 -0.01c-22.035-0.0561-39.898-17.94-39.898-39.988a0.68006 0.68006 0 0 1 0 -0.0273c0.009-0.21275 0.019-0.42608 0.0312-0.63867v0.043c-0.0729-11.915 6.4216-31.965 14.586-54.127 7.558-20.516 16.536-42.742 23.164-61.707-8.8674 18.135-18.513 40.442-27.795 60.422-10.022 21.573-19.531 40.328-27.393 48.189-0.13675 0.14863-0.27455 0.29875-0.41601 0.44727a0.68006 0.68006 0 0 1 -0.0117 0.0117c-15.59 15.588-40.862 15.604-56.482 0.0664a0.68006 0.68006 0 0 1 -0.084 -0.0684l-0.008-0.006a0.68006 0.68006 0 0 1 -0.0566 -0.0723c-15.541-15.621-15.527-40.897 0.0625-56.488a0.68006 0.68006 0 0 1 0.0195 -0.0195c0.15666-0.14421 0.31559-0.28806 0.47461-0.42968 8.3886-8.4696 27.138-18.044 48.557-27.93 19.852-9.1629 41.916-18.53 60.014-27.254-19.094 6.553-41.687 15.505-62.379 23.07-22.341 8.1683-42.328 14.707-53.445 14.707-0.20178 0.008-0.40627 0.0165-0.61132 0.0215a0.68006 0.68006 0 0 1 -0.0156 0c-22.046-0.0009-39.927-17.861-39.986-39.893a0.68006 0.68006 0 0 1 -0.0117 -0.10742v-0.01a0.68006 0.68006 0 0 1 0.01 -0.0918c0.0561-22.035 17.94-39.898 39.988-39.898a0.68006 0.68006 0 0 1 0.0274 0c0.21275 0.009 0.42608 0.0189 0.63867 0.0312h-0.043c11.915-0.073 31.965 6.4216 54.127 14.586 20.516 7.558 42.742 16.536 61.707 23.164-18.135-8.8674-40.44-18.513-60.42-27.795-21.573-10.022-40.33-19.529-48.191-27.391-0.14865-0.13676-0.29874-0.27651-0.44727-0.41796a0.68006 0.68006 0 0 1 -0.0117 -0.0117c-15.588-15.59-15.604-40.862-0.0664-56.482a0.68006 0.68006 0 0 1 0.0684 -0.08398l0.006-0.0078a0.68006 0.68006 0 0 1 0.0723 -0.05664c15.621-15.541 40.897-15.527 56.488 0.0625a0.68006 0.68006 0 0 1 0.0195 0.01953c0.14422 0.15666 0.28806 0.31559 0.42969 0.47461 8.4696 8.3886 18.044 27.138 27.93 48.557 9.1633 19.853 18.53 41.919 27.254 60.018-6.5531-19.094-15.505-41.69-23.07-62.383-8.1683-22.341-14.707-42.328-14.707-53.445-0.008-0.20181-0.0165-0.40625-0.0215-0.61133a0.68006 0.68006 0 0 1 0 -0.01563c0.00093-22.046 17.861-39.927 39.893-39.986a0.68006 0.68006 0 0 1 0.10742 -0.01172zm0.14258 161.44a0.68006 0.68006 0 0 1 -0.28711 0.002 0.68006 0.68006 0 0 1 -0.20312 0.20508 0.68006 0.68006 0 0 1 0.002 0.28515 0.68006 0.68006 0 0 1 0.20313 0.20313 0.68006 0.68006 0 0 1 0.28711 -0.002 0.68006 0.68006 0 0 1 0.20312 -0.20312 0.68006 0.68006 0 0 1 -0.002 -0.28711 0.68006 0.68006 0 0 1 -0.20313 -0.20313z" transform="translate(0 652.36)"/>
  </g>
 </g>
</svg>
